<svg width="1996" height="1996" viewBox="0 0 1996 1996" fill="none" xmlns="http://www.w3.org/2000/svg">
<g clip-path="url(#clip0_568_320)">
<path d="M1435.32 1156.22C1370.63 1334.58 1199.7 1462 999 1462C994.353 1462 989.722 1461.93 985.107 1461.79L1005.21 1391.95C1166.53 1389.46 1304.33 1290.01 1362.9 1149.3L1435.32 1156.22Z" fill="#717E86"/>
<path d="M873.825 1371.7C906.286 1382.57 940.63 1389.32 976.241 1391.35L956.466 1460.07C925.682 1457.28 895.766 1451.47 867.015 1442.96L873.825 1371.7Z" fill="#717E86"/>
<path d="M605.07 1005.54C608.082 1165.9 706.899 1302.83 846.676 1361.47L839.749 1433.95C661.931 1368.98 535 1198.31 535 998C535 993.797 535.057 989.606 535.168 985.43L605.07 1005.54Z" fill="#717E86"/>
<path d="M1461.15 1039.69C1458.42 1070.4 1452.69 1100.25 1444.26 1128.95L1373.04 1122.14C1383.8 1089.73 1390.45 1055.44 1392.4 1019.9L1461.15 1039.69Z" fill="#717E86"/>
<path d="M1156.15 561.289C1335.07 625.682 1463 796.901 1463 998C1463 1002.36 1462.94 1006.7 1462.82 1011.03L1392.94 990.919C1390.09 829.562 1290.25 691.867 1149.23 633.656L1156.15 561.289Z" fill="#717E86"/>
<path d="M624.94 873.902C614.15 906.444 607.489 940.868 605.575 976.554L536.808 956.765C539.525 925.909 545.263 895.92 553.724 867.096L624.94 873.902Z" fill="#717E86"/>
<path d="M999 534C1002.91 534 1006.82 534.048 1010.71 534.145L990.578 604.09C830.189 607.453 693.369 706.657 635.078 846.744L562.661 839.822C627.339 661.443 798.286 534 999 534Z" fill="#717E86"/>
<path d="M1039.38 535.734C1070.17 538.389 1100.1 544.048 1128.87 552.42L1122.07 623.603C1089.57 612.926 1055.2 606.363 1019.59 604.529L1039.38 535.734Z" fill="#717E86"/>
<path d="M1175.76 61.838L1115.66 690.64C1102.2 831.49 1191 961.944 1326.97 1001.07L1934 1175.76L1305.2 1115.66C1164.35 1102.2 1033.9 1191 994.769 1326.97L820.083 1934L880.182 1305.2C893.644 1164.35 804.844 1033.9 668.87 994.769L61.8378 820.083L690.64 880.182C831.49 893.644 961.944 804.844 1001.07 668.87L1175.76 61.838Z" fill="white"/>
</g>
<defs>
<clipPath id="clip0_568_320">
<rect width="1996" height="1996" rx="998" fill="white"/>
</clipPath>
</defs>
</svg>
